<svg id="Camada_1" data-name="Camada 1" xmlns="http://www.w3.org/2000/svg" viewBox="0 0 2060.36 1305.8"><defs><style>.cls-1{fill:#0a94d5;opacity:0.07;}.cls-2{fill:#a8ccff;}.cls-26,.cls-3{fill:#fff;}.cls-3{opacity:0.6;}.cls-4{fill:#5c9cf4;}.cls-5{fill:#dae6ff;}.cls-6{fill:#c8dffd;}.cls-6,.cls-7{opacity:0.5;}.cls-7{fill:#7798f8;}.cls-8{opacity:0.3;}.cls-9{fill:#b8d0fc;}.cls-10{fill:#00539e;}.cls-11{fill:#00477c;}.cls-12{fill:#ff912b;}.cls-13{fill:#ffebd8;}.cls-14{fill:#448de8;}.cls-15{fill:#f9d0b3;}.cls-16{fill:#ff9c31;}.cls-17{fill:#478be0;}.cls-18{fill:#9cc3f8;}.cls-19{fill:#fc7600;}.cls-20{fill:#f99352;}.cls-21{fill:#ffae73;}.cls-22{fill:#fddbba;}.cls-23{fill:#eb6600;}.cls-24{fill:#f8851b;}.cls-25{fill:#015ec5;}.cls-27{fill:#0b3563;}.cls-28{fill:#f1ddcb;}.cls-29{fill:#1e3865;}.cls-30{fill:#f9924f;}.cls-31{fill:#f8caa4;}.cls-32{fill:#2a3967;}.cls-33{fill:#0d458e;}</style></defs><path class="cls-1" d="M125.38,1282.33l644.57,2,171.27,0,56.74,0,171.6,0,784-.22s164.85-216-12.22-448.33C1827.23,686,1693.63,711.33,1620.24,395.22,1473.31-237.57,196.27-4.39,350.47,601.59,411.89,842.94,8.4,796,38.69,1133.6,42.53,1176.39,60.25,1232.83,125.38,1282.33Z"/><path class="cls-2" d="M763.65,1151.47l-3.47-1.91a7.68,7.68,0,0,1-3-10.41l16-29.15a7.68,7.68,0,0,1,10.41-3l5,2.72a1.51,1.51,0,0,1-1.45,2.64l-5-2.73a4.69,4.69,0,0,0-6.34,1.85l-16,29.16a4.66,4.66,0,0,0,1.85,6.33l3.48,1.9a4.66,4.66,0,0,0,6.33-1.85l10.6-19.35a1.5,1.5,0,0,1,2.63,1.44l-10.6,19.35A7.68,7.68,0,0,1,763.65,1151.47Z"/><path class="cls-2" d="M748.84,1182.08l-6.22-3.41c-5.79-3.17-7.73-10.78-4.34-17l24-43.83a1.5,1.5,0,0,1,2.63,1.44l-24,43.83c-2.59,4.75-1.18,10.53,3.15,12.91l6.23,3.41c4.33,2.37,10,.44,12.56-4.31l27.34-49.92c2.6-4.74,1.18-10.53-3.15-12.9a1.51,1.51,0,0,1,1.45-2.64c5.78,3.17,7.72,10.79,4.33,17l-27.34,49.93C762.09,1182.78,754.63,1185.25,748.84,1182.08Z"/><rect class="cls-3" x="505.16" y="248.35" width="832.58" height="709.73" rx="47.87"/><path class="cls-4" d="M527.64,248.35h787.63a22.48,22.48,0,0,1,22.48,22.48V327.1a0,0,0,0,1,0,0H505.16a0,0,0,0,1,0,0V270.82a22.48,22.48,0,0,1,22.48-22.48Z"/><path class="cls-5" d="M538.83,287.25a9.42,9.42,0,1,1,9.42,9.41A9.42,9.42,0,0,1,538.83,287.25Z"/><path class="cls-5" d="M578.35,287.25a9.42,9.42,0,1,1,9.42,9.41A9.42,9.42,0,0,1,578.35,287.25Z"/><path class="cls-5" d="M617.87,287.25a9.42,9.42,0,1,1,9.42,9.41A9.42,9.42,0,0,1,617.87,287.25Z"/><rect class="cls-6" x="571.14" y="389.59" width="236.01" height="236.01"/><path class="cls-7" d="M1059.05,407.18H871.33a8.92,8.92,0,0,1-8.92-8.92h0a8.92,8.92,0,0,1,8.92-8.92h187.72a8.92,8.92,0,0,1,8.92,8.92h0A8.92,8.92,0,0,1,1059.05,407.18Z"/><path class="cls-7" d="M1283.54,395.22H1095.81a8.92,8.92,0,0,1-8.92-8.92h0a8.92,8.92,0,0,1,8.92-8.92h187.73a8.92,8.92,0,0,1,8.92,8.92h0A8.92,8.92,0,0,1,1283.54,395.22Z"/><g class="cls-8"><path class="cls-9" d="M1096.21,475.84h-228a5.78,5.78,0,0,1-5.78-5.78h0a5.78,5.78,0,0,1,5.78-5.78h228a5.78,5.78,0,0,1,5.78,5.78h0A5.77,5.77,0,0,1,1096.21,475.84Z"/><path class="cls-9" d="M1182.9,475.84h-60.2a5.78,5.78,0,0,1-5.78-5.78h0a5.78,5.78,0,0,1,5.78-5.78h60.2a5.78,5.78,0,0,1,5.78,5.78h0A5.78,5.78,0,0,1,1182.9,475.84Z"/><path class="cls-9" d="M954.22,511.7h-86a5.78,5.78,0,0,1-5.78-5.78h0a5.78,5.78,0,0,1,5.78-5.78h86a5.78,5.78,0,0,1,5.79,5.78h0A5.78,5.78,0,0,1,954.22,511.7Z"/><path class="cls-9" d="M1093.58,511.7H975.69a5.78,5.78,0,0,1-5.79-5.78h0a5.78,5.78,0,0,1,5.79-5.78h117.89a5.78,5.78,0,0,1,5.78,5.78h0A5.78,5.78,0,0,1,1093.58,511.7Z"/><path class="cls-9" d="M1182.9,511.7h-60.2a5.78,5.78,0,0,1-5.78-5.78h0a5.78,5.78,0,0,1,5.78-5.78h60.2a5.78,5.78,0,0,1,5.78,5.78h0A5.78,5.78,0,0,1,1182.9,511.7Z"/><path class="cls-9" d="M984.93,542.7H868.19a5.78,5.78,0,0,1-5.78-5.78h0a5.78,5.78,0,0,1,5.78-5.78H984.93a5.78,5.78,0,0,1,5.78,5.78h0A5.78,5.78,0,0,1,984.93,542.7Z"/><path class="cls-9" d="M1207.86,542.7H1016.93a5.78,5.78,0,0,1-5.79-5.78h0a5.78,5.78,0,0,1,5.79-5.78h190.93a5.78,5.78,0,0,1,5.78,5.78h0A5.78,5.78,0,0,1,1207.86,542.7Z"/></g><g class="cls-8"><path class="cls-9" d="M1096.21,589.74h-228a5.78,5.78,0,0,1-5.78-5.78h0a5.78,5.78,0,0,1,5.78-5.78h228A5.78,5.78,0,0,1,1102,584h0A5.77,5.77,0,0,1,1096.21,589.74Z"/><path class="cls-9" d="M1182.9,589.74h-60.2a5.78,5.78,0,0,1-5.78-5.78h0a5.78,5.78,0,0,1,5.78-5.78h60.2a5.78,5.78,0,0,1,5.78,5.78h0A5.78,5.78,0,0,1,1182.9,589.74Z"/><path class="cls-9" d="M954.22,625.6h-86a5.78,5.78,0,0,1-5.78-5.78h0a5.78,5.78,0,0,1,5.78-5.78h86a5.78,5.78,0,0,1,5.79,5.78h0A5.78,5.78,0,0,1,954.22,625.6Z"/><path class="cls-9" d="M1093.58,625.6H975.69a5.78,5.78,0,0,1-5.79-5.78h0a5.78,5.78,0,0,1,5.79-5.78h117.89a5.78,5.78,0,0,1,5.78,5.78h0A5.78,5.78,0,0,1,1093.58,625.6Z"/></g><path class="cls-9" d="M677,424.77h24.38L767.19,575.5h-27.8l-15.18-36.13H653.44L638.05,575.5H611.11Zm37.63,91.29L688.72,456.2l-25.65,59.86Z"/><path class="cls-9" d="M791,689.77H597.77c-8.09,0-14.64-3-14.64-6.61h0c0-3.65,6.55-6.6,14.64-6.6H791c8.08,0,14.64,3,14.64,6.6h0C805.62,686.81,799.06,689.77,791,689.77Z"/><path class="cls-9" d="M725.89,713.06H597.77c-8.09,0-14.64-3-14.64-6.61h0c0-3.65,6.55-6.6,14.64-6.6H725.89c8.08,0,14.63,2.95,14.63,6.6h0C740.52,710.1,734,713.06,725.89,713.06Z"/><path class="cls-9" d="M791,848H597.77c-8.09,0-14.64-3-14.64-6.61h0c0-3.65,6.55-6.61,14.64-6.61H791c8.08,0,14.64,3,14.64,6.61h0C805.62,845,799.06,848,791,848Z"/><path class="cls-9" d="M725.89,871.26H597.77c-8.09,0-14.64-3-14.64-6.61h0c0-3.65,6.55-6.61,14.64-6.61H725.89c8.08,0,14.63,3,14.63,6.61h0C740.52,868.3,734,871.26,725.89,871.26Z"/><path class="cls-10" d="M1346.15,312.62s3.43,40.92-5.89,40.3-27.73-18.63-64.88-15.7-82.6,11-110.08-37.56S1200.44,237,1200.44,237l145.71,75.58Z"/><polygon class="cls-11" points="1267.18 309.62 1454.37 325.02 1458.26 316.69 1278.8 184.22 1097.52 163.04 1094.04 170.49 1267.18 309.62 1267.18 309.62"/><path class="cls-12" d="M1394.57,450.59a7.26,7.26,0,1,0-5,9,7.27,7.27,0,0,0,5-9Z"/><path class="cls-12" d="M1388.33,452.61c7.51-.59,9.26,67.73,9.26,67.73s-4.89,2.3-7.3,1.76-3.64-9.77-3.64-9.77l-.23,9.67s-8.23.29-11.09-1.72c0,0,1.12-66.75,13-67.67Z"/><polygon class="cls-12" points="1390.78 454.14 1389.42 304.9 1388.45 304.17 1290.68 231.85 1287.16 236.6 1383.96 308.2 1386.15 453.89 1390.78 454.14"/><path class="cls-13" d="M1105.7,1002h450.92a22,22,0,0,1,22,22v111.65a22.54,22.54,0,0,1-22.54,22.54H1105.7a0,0,0,0,1,0,0V1002a0,0,0,0,1,0,0Z"/><path class="cls-4" d="M1931.43,1066.32v23.51a71.7,71.7,0,0,1-8.68,34.43c-11.08,20.34-31.68,34-55.28,34H1093c-5.13,0-9.28-4.45-9.28-9.92v-3.52c0-5.48,4.15-9.92,9.28-9.92h472.09a65.15,65.15,0,0,0,6.62-10.66,67.14,67.14,0,0,0,6.92-29.87v-29.88a66.38,66.38,0,0,0-1.91-15.9,64,64,0,0,0-11-23.2H1093c-5.13,0-9.28-4.44-9.28-9.93V1012c0-5.49,4.15-9.93,9.28-9.93h778.33c27.43,0,50.56,19.68,57.74,46.57A68.3,68.3,0,0,1,1931.43,1066.32Z"/><path class="cls-14" d="M1929.11,1048.61H1576.76a64,64,0,0,0-11-23.2H1093c-5.13,0-9.28-4.44-9.28-9.93V1012c0-5.49,4.15-9.93,9.28-9.93h778.33C1898.8,1002,1921.93,1021.72,1929.11,1048.61Z"/><polygon class="cls-15" points="1105.7 1080.16 1163.05 1082.79 1105.7 1084.37 1105.7 1080.16"/><polygon class="cls-15" points="1105.7 1104.67 1242.13 1107.3 1105.7 1108.88 1105.7 1104.67"/><path class="cls-16" d="M987.3,1158h444.11a17.89,17.89,0,0,1,17.89,17.89v86.84a16.8,16.8,0,0,1-16.8,16.8H987.3a0,0,0,0,1,0,0V1158a0,0,0,0,1,0,0Z" transform="translate(2436.59 2437.43) rotate(180)"/><path class="cls-13" d="M1372.9,1158h499.48a17.54,17.54,0,0,1,17.54,17.54v86.84a17.15,17.15,0,0,1-17.15,17.15H1372.9a0,0,0,0,1,0,0V1158a0,0,0,0,1,0,0Z" transform="translate(3262.82 2437.43) rotate(-180)"/><rect class="cls-16" x="1334.05" y="1261.3" width="579.85" height="18.18" rx="2.59" transform="translate(3247.95 2540.78) rotate(-180)"/><rect class="cls-16" x="1334.05" y="1157.95" width="579.85" height="18.18" rx="2.59" transform="translate(3247.95 2334.08) rotate(180)"/><polygon class="cls-15" points="1889.91 1218.71 1827.23 1220.76 1889.91 1221.99 1889.91 1218.71"/><polygon class="cls-15" points="1889.91 1190.75 1740.79 1192.79 1889.91 1194.02 1889.91 1190.75"/><path class="cls-4" d="M1742.33,1192.38a28.17,28.17,0,0,1,8.5,13.81,22.23,22.23,0,0,1,.67,4.8c.35,11.4,0,37.21,0,37.21l18.86-12.9,18.82,12.9v-35c0-6.61-1.61-13-4.61-17.26-1.45-2-3.22-3.58-5.21-3.58Z"/><path class="cls-17" d="M1742.33,1192.38a28.17,28.17,0,0,1,8.5,13.81l37.81.51s-1.48-12.29-9.28-14.32Z"/><path class="cls-13" d="M1001.94,823.82h437.4A25.19,25.19,0,0,1,1464.54,849V976.61a25.76,25.76,0,0,1-25.76,25.76H1001.94a0,0,0,0,1,0,0V823.82a0,0,0,0,1,0,0Z"/><path class="cls-2" d="M1464.77,893.1v38.43c-.1,16.41-7.71,30.65-18.89,38.26a32.94,32.94,0,0,1-18.62,5.87H989.77c-5.13,0-9.28,5-9.28,11.09v4.53c0,6.13,4.15,11.09,9.28,11.09h755.78c21.68,0,40.85-12.87,52.42-32.58a86.61,86.61,0,0,0,11.59-43.87V895.6a83.2,83.2,0,0,0-6-31.21c-9.72-24-30.3-40.56-54.13-40.56H989.77c-5.13,0-9.28,4.95-9.28,11.07v4.54c0,6.12,4.15,11.09,9.28,11.09H1428.6c10.49,0,20,5.33,26.61,13.86A47.23,47.23,0,0,1,1464.77,893.1Z"/><path class="cls-18" d="M980.49,986.75v4.53c0,6.13,4.15,11.09,9.28,11.09h755.78c21.68,0,40.85-12.87,52.42-32.58H1445.88a32.94,32.94,0,0,1-18.62,5.87H989.77C984.64,975.66,980.49,980.63,980.49,986.75Z"/><polygon class="cls-15" points="1001.95 913.1 1058.03 916.1 1001.95 917.9 1001.95 913.1"/><polygon class="cls-15" points="1001.95 872 1135.37 875.01 1001.95 876.82 1001.95 872"/><path class="cls-12" d="M1134,874.41s-8.81,5.66-11.72,15a19.46,19.46,0,0,0-.92,5.2c-.48,12.37,0,40.35,0,40.35l-26-14-25.93,14V897c0-7.18,2.22-14.15,6.35-18.72,2-2.21,4.43-3.88,7.18-3.88Z"/><path class="cls-19" d="M1134,874.41s-8.81,5.66-11.72,15l-52.1.55s2-13.32,12.79-15.52Z"/><g id="girl_2" data-name="girl 2"><path class="cls-20" d="M469.88,986.58s81.44,35.48,96.22,34.83S672,993.67,672,993.67l-2.32,15.67s-70.3,40.43-94.88,42.72c-24.19,2.26-106.93-21.71-114.92-26.78S446.67,991.7,469.88,986.58Z"/><path class="cls-10" d="M457.64,856.05s-30-5.71-45,5.22c-27.11,19.79-28.57,88-38.73,98.2s-34.64,5.83-36.82,58.43,9.75,57-4.46,80.48,6,47,6,47-8.28-13-4.73-22.32c0,0,3.45,20.65,16.56,25.49s15.06,8.39,17.16,15.49c0,0,111.9-57.35,112-98s22-81,11.27-98.59c0,0,4.79,7.55,5.38,15.93,0,0,6.45-12.36-4.73-23.87s13.12-35.33,9.52-62.91C498.62,877.62,485.33,856.87,457.64,856.05Z"/><path class="cls-21" d="M479.78,1025.33A78.45,78.45,0,0,1,452.4,1037c-42.21,9.75-58.38-25.92-64.45-50.4a36.29,36.29,0,0,1,14.29-4.4c3.05-.36,6.26-.59,8.92-.73,4.74-3.63,11.8-18.48,13.36-41.55l2,.54,33.26,9.1s-1.53,10.57-2.27,20.57c-.58,7.81-.67,15.29.81,17.12,2.6.56,4.15.93,4.15.93l0,0A213.56,213.56,0,0,1,479.78,1025.33Z"/><path class="cls-20" d="M459.77,949.55s-1.53,10.56-2.27,20.56c-18.84-1.89-27.59-19.83-31-29.67Z"/><path class="cls-21" d="M465.4,959.47s-44.73-2.47-42.77-30.3-2.48-46.89,26.16-46.49,33.43,11.41,35,20.86S477.08,959.39,465.4,959.47Z"/><path class="cls-10" d="M483.61,888c-6.31-8.87-11.66-7.4-14.76-5.1-23.46-15.17-40.62,3.55-40.62,3.55a53.27,53.27,0,0,1-19.64,30.15s7.79,5.62,26.9,2.14c5.84-1.07,11.26-4.77,16-9.4a104.74,104.74,0,0,1-19.51,20.62c23.17-8.76,34.41-39.3,35.55-42.53,2.55,2.64,7.54,8.35,8.81,13.68,1.71,7.25,9.13,18.57,13.42,18.38C489.72,919.46,493.06,901.27,483.61,888Z"/><path class="cls-22" d="M375.21,1116.27c-4-20.65-17.21-103.15-4-129.69,4.73-9.54,23.29-10.4,43.65-9.56,6.34,4.09,30.48,19.54,40.4,17.62l.55-.13c4.67-1.17,6.44-4.45,2.54-7.28a88.45,88.45,0,0,1,22.61,1.38c7.08,1.33,26.16,11.21,26.16,11.21s-9.61,17.36-23.78,23.35c2.41,21.55-1.18,31.06-23.53,80.84-18.9,42.07,2.55,80,2.55,80s-111.22,89.42-111.84,43.89C350,1193.58,380.37,1142.66,375.21,1116.27Z"/><path class="cls-23" d="M467.83,1281.2a20.66,20.66,0,0,0,14.87-9.06c.54-.8,1.11-1.66,1.72-2.59,12.66-19.16,17.59-77.85,46.06-140.38,6.94-15.22,31.84-18,38.63-35.17,0,0,16.71-55.77-32-57.41s-130.4,155.18-131.69,171.63C404.18,1224.16,373.24,1291.87,467.83,1281.2Z"/><path class="cls-10" d="M661.36,1279.92H592.05s-2.59-11.06,2-18.58c4-6.65,2.49-10.45-.5-15.95a27.1,27.1,0,0,0,11.68,2.2c3.45-.2,7.1-1.77,10.3-3.63,3,3.4,15.76,17.88,19.75,20.75C639.77,1268,660,1266.8,661.36,1279.92Z"/><path class="cls-24" d="M570.69,1052.71c4.17,31.28,20.47,130,49.22,178.21,9.26,15.53-23.35,24.23-23.53,24.19-4.37-1.15-11.66-8.12-15-11.15-23.34-21-70.72-80.59-70.72-128.34,0-23.28-.41-67.75,16.52-79C537.59,1029.61,569,1040.28,570.69,1052.71Z"/><path class="cls-12" d="M426.5,1279.92s2.57-3.58,7.05-10.37c5.33-8.07,11.23-24,18.38-44.32,7.52-21.38,16.44-47.68,27.58-75,3.44-8.45,7.09-17,11-25.54,6.93-15.22,26-13.11,32.8-30.32,0,0,26.49-59.66-22.2-61.3s-141.22,159.58-146.53,175.19C348.74,1225.32,320.34,1296.29,426.5,1279.92Z"/><path class="cls-25" d="M610.48,1279.92h-69.3s-2.59-11.06,2-18.58c4-6.65,2.48-10.45-.5-15.95a27.08,27.08,0,0,0,11.67,2.2c3.46-.2,7.11-1.77,10.31-3.63,3,3.4,15.75,17.88,19.74,20.75C588.89,1268,609.09,1266.8,610.48,1279.92Z"/><path class="cls-24" d="M451.93,1225.23c7.52-21.38,16.44-47.68,27.58-75-2.91-20.73-9.19-38.87-19.74-46.18C459.77,1104,434.16,1183.35,451.93,1225.23Z"/><path class="cls-12" d="M530.24,1050.49c4.17,31.29,10,132.25,38.79,180.43,9.27,15.53-23.35,24.23-23.52,24.19-4.38-1.15-11.67-8.12-15-11.15-23.33-21-70.71-80.59-70.71-128.34,0-23.28,27.32-65.88,44.25-77.18C514.45,1031.48,528.58,1038.06,530.24,1050.49Z"/><path class="cls-26" d="M473.77,943.46s-4.23-1.67-16.13-.7c0,0,.63,4.64,9.41,5.1C472,948.12,473.77,943.46,473.77,943.46Z"/><polygon class="cls-27" points="680.67 960.89 666.3 934.96 635.22 1021.7 653.56 1041.38 680.67 960.89"/><polygon class="cls-10" points="605.65 976.07 576.76 1058.61 653.56 1041.38 680.67 960.89 605.65 976.07"/><polygon class="cls-28" points="578.29 1054.45 576.94 1052.09 604.28 973.98 605.65 976.07 578.29 1054.45"/><polygon class="cls-13" points="604.28 973.98 677.1 959.81 680.67 960.89 605.65 976.07 604.28 973.98"/><polygon class="cls-28" points="680.67 960.89 665.13 936.22 655.23 964.07 677.1 959.81 680.67 960.89"/><path class="cls-21" d="M627.82,988c-2.49-.48-7.85-2.5-13.28-4,1.62-1.26,3.43-2.8,3.93-4.39,1-3.06,1.61-4-1.61-3.07s-14.52,6.14-14.52,6.14l0,0c-6.41,1.87-12.32,10.94-12.32,10.94s-79.41,27.91-89,28.39C486.31,1022.8,388,986.58,388,986.58c-23.22,5.12-18,33.64-10,38.7s78.77,30.82,120.71,31.3c21.25.25,98.53-49.43,98.53-49.43s9-4.13,16.14-2.84,23.55,0,27.1-5.8S632,988.83,627.82,988Z"/><path class="cls-22" d="M438.62,1004.44s-8.79,27.85-39,34.19c0,0-49.89-15.37-25.05-49.36C374.56,989.27,399.12,971,438.62,1004.44Z"/><path class="cls-21" d="M679.38,990.12h0a7.77,7.77,0,0,0-.26-2.26s-7.12-11.26-9.45-11.72c-7.1-1.4-7.1,8-5.59,14a24.43,24.43,0,0,0,5.87,10.41h0l-.28,8.81C681.65,1002.75,679.38,990.12,679.38,990.12Z"/></g><path class="cls-29" d="M1450.46,971c13,23.09,29.61,32.09,29.61,32.09l69.14.49S1440.5,953.43,1450.46,971Z"/><path class="cls-21" d="M1502.3,1149.35a6.4,6.4,0,0,1,1.1,6.85l0,0c-1.68,4.55-7.17,9.6-13.53,14.63-.81.65-1.54,1.24-2.17,1.79l-.49.43-.37.33c-5.94,5.4-3.73,6.66-14.41,17.62-12.18,12.5-20.5,12.66-22.86,11.5-2-1,2.12-7.63,6.68-15.1l.67-1.09c.61-1,1.21-2,1.81-3,5.35-9,4-13.24,2.87-26.67-.95-10.92-16.55-61.09-16.55-61.09l23.19-3.83s6.7,39.91,14.34,46.1c4.09,3.3,8.69,3.38,12.62,5.83l.82.52A30.48,30.48,0,0,1,1502.3,1149.35Z"/><path class="cls-29" d="M1502.3,1149.35a6.4,6.4,0,0,1,1.1,6.85l0,0c-2.05,4.54-7.4,9.57-13.55,14.59-.81.66-1.52,1.26-2.15,1.83l-.49.43-.37.33c-5.94,5.4-3.73,6.66-14.41,17.62-12.18,12.5-20.5,12.66-22.86,11.5-2-1,2.12-7.63,6.68-15.1a51.44,51.44,0,0,0,21.66-15.72c7.35-9.24,12.29-21.14,17.29-28l.82.52A30.48,30.48,0,0,1,1502.3,1149.35Z"/><path class="cls-21" d="M1315.6,1133.57c-1.48,7.14-11.66,5.87-23,3s-8.68.46-24.88-1.45-21.06-8-21.54-10.4c-.43-2.14,7.59-2.83,16.18-3.76l3.26-.37c9.7-1.15,16.85-7.36,25.7-12.43,8.37-4.81,21-24.56,21-24.56l22.21,1.92s-11.79,17.63-16.35,25.3c-2.69,4.51-2.59,10.51-2.29,15.13A28.55,28.55,0,0,1,1315.6,1133.57Z"/><path class="cls-29" d="M1292.57,1136.58c-11.37-2.86-8.68.46-24.88-1.45s-21.06-8-21.54-10.4c-.43-2.14,7.59-2.83,16.18-3.76l.08.16a45.7,45.7,0,0,0,23.16,7.38c11,.35,22.67-2.72,30.26-2.55a28.55,28.55,0,0,1-.23,7.61C1314.12,1140.71,1303.94,1139.44,1292.57,1136.58Z"/><path class="cls-29" d="M1401.79,992l20.38,56.06,26.62,73.2a44,44,0,0,0,14.42-1.22c6.5-1.83,14-6.68,14-6.68s-7-78.45-20.71-123.54c-3.52-11.58-7.49-21-11.91-26.24C1423,937.72,1401.79,992,1401.79,992Z"/><path class="cls-10" d="M1423.54,903.39c13.65-4.29,52.43,1.62,91.38,9.53l8.26-13.41,84.29-6s27.36,61.84,11.87,101c-2.28,5.75-7.83,8.15-15.41,8.22h0s-50.28.87-66.56.76c-41.89-.3-88.46-29.43-94.5-30.68-9.89-2.05-14,17.73-24,38.45s-93.74,91.44-93.74,91.44-12.78,0-18-2c-5.67-2.17-7.72-5-7.72-5S1392.77,913.08,1423.54,903.39Z"/><path class="cls-10" d="M1524.49,783.5c29.89,16.72,90.5,51.4,90.82,51.18,0,0,22.31,8.58,35.06.24,21.25-13.89,32.86-51.62-5.59-84.42-19.18-16.36-32.86-20.41-34.76-46.33-1-14.06-19.91-60.59-51.87-56.52a48.21,48.21,0,0,1-8.05.47,29.8,29.8,0,0,0-16.22,4.07C1515.73,662.82,1479.57,776.79,1524.49,783.5Z"/><path class="cls-21" d="M1549.74,769.61c-.13.09,14.72,5.28,24.71.94,9.4-4.08,16.6-19.44,16.46-19.45-4.26-.22-8.91-4-12.34-28.46l-1.82.64-30.59,10.77s2.15,9.8,3.51,19.13C1550.82,761,1551.41,768.52,1549.74,769.61Z"/><path class="cls-30" d="M1546.16,734.05s1.31,6.87,3.12,16.69c17.54-3,24.94-18,27.47-27.46Z"/><path class="cls-21" d="M1541.55,743.73s41.78-5.31,38.08-31.28-.81-44.14-27.65-41.85-30.59,12.94-31.46,21.91S1530.59,744.44,1541.55,743.73Z"/><path class="cls-10" d="M1522.14,678.3s26.56,23.22,44.73,25.2,25.08-3.8,25.08-3.8a70.91,70.91,0,0,1-17-23.37,12.79,12.79,0,0,0-10.49-7.61C1551.5,667.51,1526.9,666.82,1522.14,678.3Z"/><path class="cls-10" d="M1538.86,676.35s-9,8.58-11.86,15c-2.76,6.16-3.68,20.95-1.56,26.85,0,0-13.73-27.18-5.76-40.29C1528.15,664,1538.86,676.35,1538.86,676.35Z"/><path class="cls-22" d="M1514.15,830.86c.67,84.5-.12,66.84,9.06,74.92,2.22,2,8.47,3.15,16.71,3.75,25.9,1.9,71.47-2,73.24-6.82,6.09-16.53,1.91-21.71,7.08-47,.53-2.69,1.2-5.61,2-8.78,4.29-17.39,8.37-23.29-6.18-51.38-13.19-25.45-26.94-46.13-28.2-45.39-35.44,20.7-38.16,3.07-38.16,3.07S1513.83,789.64,1514.15,830.86Z"/><path class="cls-10" d="M1422.17,1048.1l26.62,73.2a44,44,0,0,0,14.42-1.22c6.5-1.83,14-6.68,14-6.68s-7-78.45-20.71-123.54Z"/><path class="cls-22" d="M1549.67,753.18s-36.35,5.9-40.73,21.51S1478.83,882,1478.83,882s18.43,3.45,27-5,30.23-78.91,30.23-78.91Z"/><path class="cls-31" d="M1539.92,909.53c25.9,1.9,71.47-2,73.24-6.82,6.09-16.53,1.91-21.71,7.08-47L1608,820.39s1.79,39.21-9.84,49.43S1550.69,889.38,1545,898A31.38,31.38,0,0,0,1539.92,909.53Z"/><path class="cls-21" d="M1569.72,893.26s-25.52-5.88-29.66-3.64-14.28,10.43-15.56,13.3,9.2-2.12,12.6-3c2.2-.57,8,1.48,10.84,2.46,12,4.11,19.44,2.09,19.44,2.09Z"/><path class="cls-22" d="M1587.85,750.1s34.31,2.35,46.07,19c16.57,23.45,49,123.1,29.93,136.22-21.52,14.79-97.49,3.22-97.49,3.22s-2.44-11.84,1.12-17.54,60.85-14.54,63.5-17.16-32.64-51.73-32.59-59.65S1587.85,750.1,1587.85,750.1Z"/><path class="cls-21" d="M1538.77,896.73s-5.4,6.87-7.17,7.68a5.15,5.15,0,0,1-2.89.6l3.66-6.47Z"/><path class="cls-21" d="M1540.06,889.62l-15.63,7.46a2.81,2.81,0,0,0,2.58,1c1.91-.07,6.76-1.81,6.76-1.81Z"/><polygon class="cls-12" points="1534.94 915.56 1411.76 914.7 1375.35 822.29 1498.34 823.16 1534.94 915.56"/><polygon class="cls-19" points="1410.34 911.09 1573 912.24 1572.97 915.83 1411.76 914.7 1410.34 911.09"/><path class="cls-26" d="M1443.18,868.84c-.91-3.24,1-5.86,4.22-5.83a8.41,8.41,0,0,1,7.51,5.91c.9,3.25-1,5.86-4.23,5.84A8.38,8.38,0,0,1,1443.18,868.84Z"/><path class="cls-12" d="M866.79,819S873.5,848,893,848c16.75,0,39.73-37.87,39.73-37.87Z"/><path class="cls-25" d="M1091.15,1248.58l-12.56,8.64s-60.38-64.36-75-126c-2.6-11-3.65-21.88-2.54-32.19,0,0-.88-2.79-2.42-7.73l-.21-.66c-.67-2.17-1.48-4.72-2.38-7.61-2.93-9.32-7-22.08-11.53-36.6-10.55-33.42-34.69-108.8-45-140.16l74.12-26.81s8.42,19.2,20.52,71.38c1.87,6.81,3.73,14.35,5.48,22.55,2,9.3,3.82,19.46,5.35,30.44a467.7,467.7,0,0,1,4.45,62.49c0,9.33-.19,19-.74,29-.41,7.32.68,17.09,2.72,28.19C1060.79,1174.24,1091.15,1248.58,1091.15,1248.58Z"/><path class="cls-29" d="M1130.64,1279.6h-59.93s-2.24-9.56,1.69-16.07c3.48-5.75,2.15-9-.43-13.79a23.31,23.31,0,0,0,10.09,1.9,21.2,21.2,0,0,0,8.92-3.13c2.57,2.94,13.62,15.45,17.07,17.93C1112,1269.26,1129.43,1268.25,1130.64,1279.6Z"/><path class="cls-10" d="M1045,1003.78l-46.56,86.81c-.67-2.17-1.48-4.72-2.38-7.61-2.93-9.32-7-22.08-11.53-36.6-10.55-33.42-34.69-108.8-45-140.16l74.12-26.81s8.42,19.2,20.52,71.38c1.87,6.81,3.73,14.35,5.48,22.55C1041.64,982.64,1043.49,992.8,1045,1003.78Z"/><path class="cls-29" d="M938.34,1260.84s-4.15,10.18-.24,18.76h32.6s.67-7.74-11.16-16.72C950.58,1256.09,938.34,1260.84,938.34,1260.84Z"/><path class="cls-32" d="M973.82,598.2c0-1.62.85-19.12,27.43-20.67,0,0-13,1.88-15.16,7.68,0,0,8.73-7.32,16-5.21s11.88,14.72,12,18.9-3.56,17.75-8.14,19a13.9,13.9,0,0,1-5.57.14,64.76,64.76,0,0,1,3.73,6.3c11.14,21.53,1.53,46.9-7.52,44.77-5.8-1.37-9.33,8.68-9.33,8.68l-55.78-48S951.08,586.77,973.82,598.2Z"/><path class="cls-21" d="M938.75,744a67.6,67.6,0,0,0,23.67,10.07c36.5,8.44,50.49-22.41,55.74-43.58a31.3,31.3,0,0,0-12.37-3.8c-2.63-.31-5.41-.52-7.7-.63-4.1-3.14-10.21-16-11.56-35.93l-1.72.46-28.76,7.87s1.32,9.14,2,17.78c.5,6.77.58,13.23-.7,14.81l-3.59.8,0,0A185.88,185.88,0,0,0,938.75,744Z"/><path class="cls-20" d="M956.05,678.44s1.32,9.14,2,17.79c16.3-1.63,23.86-17.15,26.8-25.66Z"/><path class="cls-21" d="M955.72,692.17s37.51-9.65,31.15-32.92-5.81-40.19-30-35-26.43,15.32-26.2,23.61S945.79,694.07,955.72,692.17Z"/><path class="cls-32" d="M928.2,634.6c3.85-8.59,8.64-8.25,11.66-6.82,17.33-16.83,35-3.84,35-3.84a46.14,46.14,0,0,0,21.75,22.26s-5.65,6.07-22.45,6.35c-5.14.08-10.35-2.15-15.12-5.28a90.16,90.16,0,0,0,20,14.19C958,658,943.29,633.94,941.78,631.39c-1.72,2.67-5,8.36-5.16,13.09-.24,6.44,2.27,18.86-1.4,19.43C935.22,663.91,922.43,647.47,928.2,634.6Z"/><path class="cls-21" d="M944.92,709.9s63-15.3,90.41,7.3l-13.69,191L898.41,878.39s3.47-12.09,27.1-44.22S938.86,754.91,944.92,709.9Z"/><path class="cls-25" d="M981.66,886.9s-.08.65-.2,1.88q-.09.79-.21,1.92c-.53,4.95-1.53,14.45-2.83,26.79-3.38,32.39-8.69,84.41-12.3,125.46-2.83,32.1-4.63,57.51-3.66,61.59,2.92,12.28,0,159,0,159-10.47,5-26.35,0-26.35,0s-27.9-132.25-24-150.63a63.26,63.26,0,0,0-2.61-34.07c-21.66-100.88-19.29-156.79-15-183.56a112.73,112.73,0,0,1,3.7-16.34,35.63,35.63,0,0,1,1.48-4C947.49,862.1,981.66,886.9,981.66,886.9Z"/><path class="cls-16" d="M1043.83,771.66c-3,23-15.21,51.09-19.56,66.22,0,0,7.27,52.54.33,67a6.31,6.31,0,0,1-3,3.31c-25.69,11.2-125.76.33-130-31.95-1.53-11.73,38.12-53,40.43-58,1-2.07,2-8.79-2.67-22.7-6.59,20.32-43,14.48-43,14.48,4.27-7.31,14.91-57.84,26.78-80.65,8.93-17.15,32.77-19.63,32.77-19.63s9.92,15.74,33.91,13.5,28.38-16.92,28.38-16.92,21.28,2.83,27.84,8.12C1037.27,715.33,1047.82,741.57,1043.83,771.66Z"/><path class="cls-24" d="M1024.27,837.88s7.27,52.54.33,67c-18.72-9.4-33.47-34.82-30.07-63.13,2.52-20.94,6.26-25.71,17.46-37.69,8.23-8.8,27.25-9.3,25.76-5.11C1033.31,811.38,1026.57,829.89,1024.27,837.88Z"/><polygon class="cls-33" points="946.12 775.75 989.03 844.59 916.02 844.59 875.14 777.24 946.12 775.75"/><polygon class="cls-28" points="986.8 841.13 987.54 838.73 946.94 773.59 946.12 775.75 986.8 841.13"/><polygon class="cls-13" points="946.94 773.59 878.16 775.55 875.14 777.24 946.12 775.75 946.94 773.59"/><polygon class="cls-27" points="875.14 777.24 836.56 756.36 881.53 826.99 916.02 844.59 875.14 777.24"/><path class="cls-21" d="M1079.32,825.48c-4.13,1.89-14.74,14.38-18.53,15.65-17,5.7-89.47-9.46-89.47-9.46L973.56,819s71.11,1.89,78.93-.2c1.47-.4,9.15-12.42,12.11-14.14Z"/><path class="cls-21" d="M973.56,819s-8.57-7-14.37-5.4-14.32,8.91-17.48,10.64-11.77,7.94-7.41,11.7,17.93.53,23.31-2.35,13.71-1.9,13.71-1.9Z"/><path class="cls-21" d="M960.84,813.35s-10.43-1.24-13.27-1.18-2.08.68-.51,2.89,7,3.05,7.25,3.82S960.84,813.35,960.84,813.35Z"/><path class="cls-16" d="M1008.29,706.29s30.91,3.67,39.42,16.92c10.76,16.76,36.15,83.5,35.33,100.32,0,0-18.57,31.59-82.23,26.54,0,0-6.62-23.4,6.77-31.12,0,0,32.7-5.82,36.46-9.13l-26.66-48.45Z"/><path class="cls-21" d="M885,802.41c-1-3.9-9.45-1.46-12.31.78a11.66,11.66,0,0,0-2.18,2.55c-.09-.65-.16-1.27-.21-1.76-.16-1.83-2.29-5.1-2.82-2.65s-1.4,12.76-1.4,12.76c-.1,8.3,5.24,11.73,8.66,9S886,806.3,885,802.41Z"/><rect class="cls-10" x="122.71" y="1279.57" width="1833.97" height="6.66" rx="0.95"/></svg>