<svg id="Camada_1" data-name="Camada 1" xmlns="http://www.w3.org/2000/svg" xmlns:xlink="http://www.w3.org/1999/xlink" viewBox="0 0 1080 1080"><defs><style>.cls-1{fill:#333;}.cls-2{fill:url(#Gradiente_sem_nome_18);}.cls-3{fill:url(#Gradiente_sem_nome_18-2);}</style><linearGradient id="Gradiente_sem_nome_18" x1="866.07" y1="374.13" x2="866.07" y2="558.47" gradientUnits="userSpaceOnUse"><stop offset="0" stop-color="#0a94d5"/><stop offset="1" stop-color="#015ec5"/></linearGradient><linearGradient id="Gradiente_sem_nome_18-2" x1="840.17" y1="374.13" x2="840.17" y2="558.47" xlink:href="#Gradiente_sem_nome_18"/></defs><polygon class="cls-1" points="320.81 373.32 357.47 383.63 404.9 375.75 356.63 367.11 320.81 373.32"/><rect class="cls-1" x="441.15" y="368.66" width="13.05" height="50.23"/><path class="cls-1" d="M198.71,547.49h.87l28-143.22h43.63L221.9,615.33H182.62l-38.85-139h-.87l-38.7,139H64.92L15.63,404.27H59.26L87.39,547.34h.87l38-143.07h34.21Z"/><path class="cls-1" d="M282.42,535.46q0-35.08,19.57-57.48t54.21-22.39q34.79,0,54.5,22.32t19.72,57.55v3q0,35.37-19.64,57.62t-54.29,22.25q-34.78,0-54.43-22.25T282.42,538.5Zm42.18,3q0,21.45,7.54,34.43t24.35,13q16.38,0,24-13t7.61-34.36v-3q0-20.88-7.68-34.07T356.2,488.2q-16.38,0-24,13.26t-7.61,34Z"/><path class="cls-1" d="M542,494.87l-15.51-.44q-9.42,0-15.51,3.92a24.84,24.84,0,0,0-9.28,11v106H459.48V458.49h39.28l1.89,23.19q5.5-12.31,14.28-19.21a31.8,31.8,0,0,1,20.22-6.88,32.44,32.44,0,0,1,5.87.5c1.78.34,3.6.75,5.43,1.23Z"/><path class="cls-1" d="M620,549.66H609.29v65.67H567V389.2h42.33V517.48h9.42l37.55-59h49l-51,71.46,58,85.38H663.5Z"/><rect class="cls-1" x="731.12" y="402.64" width="42.33" height="31.75"/><rect class="cls-1" x="731.12" y="458.49" width="42.33" height="156.84"/><path class="cls-2" d="M810.63,615.33l19-127.13h-23.2l4.35-29.71h23.34l2.61-17.4q4-27.39,21.16-41.17T903,386.15a72,72,0,0,1,10.8.87q5.73.87,12,2.18l-8.41,31.45q-3.33-.57-6.52-1a56.51,56.51,0,0,0-7.54-.44q-9.86,0-16.23,5.73t-8,16.16l-2.61,17.4h30.15l-4.35,29.71h-30.3L853,615.33Z"/><path class="cls-3" d="M1064.37,458.44h-45.52l-45.08,99.73-.87-.14-.29-8.55-12.9-91H914.19l33.19,156.89c-8.25,17.77-16.35,27-31.57,41.47a123.58,123.58,0,0,1-24.71,17.75c-29.33,16.47-63.46,22.6-96.77,23l-3.36,0c-101.7,0-145.26-55.75-147.07-58.12L630,649.89l-14,10.39c2.19,2.94,54.9,72.11,175,72.11,70,0,142.2-29.17,180.44-90.17,12.41-19.79,21.47-41.49,31.93-62.31l38.87-77.36Z"/><path class="cls-1" d="M280.47,375.43l8.42,2.38a.35.35,0,0,0,0,.06l68.41,19.87,69-19.73v-.2l40.24-11.4-110.06-18.8L249.12,366.32Z"/><path class="cls-1" d="M293.7,456.68c16.28-14.6,37.25-22,62.5-22,26.06,0,47.59,7.81,64.15,23.21a9.09,9.09,0,0,0,5.94-9.1V394l-69,19.73-68.53-19.9c-.06,18,.21,55.57.21,55.57A6.81,6.81,0,0,0,293.7,456.68Z"/></svg>