<svg id="Camada_1" data-name="Camada 1" xmlns="http://www.w3.org/2000/svg" xmlns:xlink="http://www.w3.org/1999/xlink" viewBox="0 0 1080 1080"><defs><style>.cls-1{fill:#333;}.cls-2{fill:url(#Gradiente_sem_nome_11);}.cls-3{fill:url(#Gradiente_sem_nome_11-2);}</style><linearGradient id="Gradiente_sem_nome_11" x1="858.06" y1="378.2" x2="858.06" y2="558.02" gradientUnits="userSpaceOnUse"><stop offset="0" stop-color="#ff9c31"/><stop offset="1" stop-color="#f8851b"/></linearGradient><linearGradient id="Gradiente_sem_nome_11-2" x1="832.8" y1="378.2" x2="832.8" y2="558.02" xlink:href="#Gradiente_sem_nome_11"/></defs><polygon class="cls-1" points="326.19 377.42 361.95 387.47 408.23 379.78 361.14 371.36 326.19 377.42"/><rect class="cls-1" x="443.58" y="372.87" width="12.73" height="49"/><path class="cls-1" d="M207.1,547.3H208l27.29-139.69H277.8L229.72,613.48H191.4l-37.89-135.6h-.85l-37.75,135.6H76.59L28.52,407.61H71.08L98.51,547.16h.85l37-139.55h33.37Z"/><path class="cls-1" d="M288.75,535.57q0-34.22,19.09-56.06t52.88-21.85q33.93,0,53.16,21.77t19.23,56.14v3q0,34.5-19.16,56.2T361,616.45q-33.93,0-53.09-21.71t-19.16-56.2Zm41.14,3q0,20.93,7.36,33.58T361,584.77q16,0,23.4-12.72t7.43-33.51v-3q0-20.37-7.5-33.23t-23.61-12.87q-16,0-23.4,12.94t-7.43,33.16Z"/><path class="cls-1" d="M541.91,496l-15.13-.43q-9.19,0-15.13,3.82a24.26,24.26,0,0,0-9,10.75V613.48H461.46v-153h38.32l1.83,22.62q5.38-12,13.93-18.73A32.46,32.46,0,0,1,541,458.16c1.75.33,3.51.73,5.3,1.2Z"/><path class="cls-1" d="M618.05,549.42H607.59v64.06H566.3V392.9h41.29V518h9.19l36.62-57.55h47.79l-49.77,69.7L708,613.48H660.47Z"/><rect class="cls-1" x="726.43" y="406.01" width="41.29" height="30.97"/><rect class="cls-1" x="726.43" y="460.49" width="41.29" height="152.99"/><path class="cls-2" d="M804,613.48l18.52-124H799.88l4.24-29h22.76l2.55-17q4-26.72,20.64-40.16t44-13.43a71.2,71.2,0,0,1,10.54.85q5.58.86,11.66,2.12L908,423.58q-3.25-.56-6.36-1a55.8,55.8,0,0,0-7.35-.42q-9.62,0-15.84,5.59t-7.78,15.76l-2.54,17h29.41l-4.24,29H863.79l-18.53,124Z"/><path class="cls-3" d="M1051.48,460.45h-44.4l-44,97.28-.85-.14-.28-8.35L949.4,460.45H905l32.37,153c-8,17.33-16,26.37-30.8,40.45a120.05,120.05,0,0,1-24.1,17.31c-28.6,16.07-61.89,22-94.39,22.42l-3.28,0c-99.2,0-141.69-54.38-143.45-56.7l-13.59,10.21-13.65,10.13c2.14,2.87,53.56,70.34,170.69,70.34,68.29,0,138.7-28.45,176-87.95,12.1-19.3,20.94-40.47,31.15-60.78l37.91-75.46Z"/><path class="cls-1" d="M286.85,379.47l8.21,2.33a.13.13,0,0,1,0,.05l66.73,19.38L429.08,382v-.19l39.26-11.13L361,352.34,256.27,370.59Z"/><path class="cls-1" d="M299.75,458.73c15.88-14.25,36.34-21.46,61-21.46,25.41,0,46.41,7.61,62.57,22.64a8.87,8.87,0,0,0,5.79-8.88V397.54l-67.32,19.24-66.85-19.41c-.05,17.57.21,54.2.21,54.2A6.65,6.65,0,0,0,299.75,458.73Z"/></svg>