<svg id="Camada_1" data-name="Camada 1" xmlns="http://www.w3.org/2000/svg" viewBox="0 0 1080 1080"><defs><style>.cls-1{fill:#fff;}</style></defs><polygon class="cls-1" points="325.55 376.93 361.42 387.02 407.83 379.31 360.61 370.86 325.55 376.93"/><rect class="cls-1" x="443.29" y="372.37" width="12.76" height="49.15"/><path class="cls-1" d="M206.11,547.33H207l27.37-140.12H277L228.8,613.69H190.36l-38-136h-.85l-37.87,136H75.21L27,407.21H69.68l27.51,140H98l37.16-140h33.47Z"/><path class="cls-1" d="M288,535.55q0-34.31,19.15-56.22t53-21.92q34,0,53.33,21.84t19.28,56.3v3q0,34.61-19.21,56.37t-53.11,21.77q-34,0-53.25-21.77T288,538.53Zm41.27,3q0,21,7.37,33.68t23.83,12.7q16,0,23.47-12.77t7.44-33.61v-3q0-20.41-7.51-33.32t-23.69-12.91q-16,0-23.47,13t-7.44,33.25Z"/><path class="cls-1" d="M541.92,495.85l-15.18-.43q-9.21,0-15.17,3.83A24.29,24.29,0,0,0,502.49,510V613.69H461.23V460.25h38.43l1.84,22.69q5.38-12,14-18.79A32.58,32.58,0,0,1,541,457.91c1.74.33,3.52.73,5.31,1.21Z"/><path class="cls-1" d="M618.28,549.45H607.79v64.24H566.38V392.46h41.41V518H617l36.73-57.72h47.93l-49.92,69.92,56.73,83.52H660.83Z"/><rect class="cls-1" x="726.98" y="405.62" width="41.41" height="31.06"/><rect class="cls-1" x="726.98" y="460.25" width="41.41" height="153.44"/><path class="cls-1" d="M804.76,613.69l18.58-124.37H800.65l4.26-29.07h22.83l2.55-17q4-26.81,20.7-40.27t44.11-13.48a70.09,70.09,0,0,1,10.56.86q5.61.84,11.7,2.12l-8.22,30.78c-2.18-.38-4.3-.71-6.38-1a56.18,56.18,0,0,0-7.38-.42q-9.64,0-15.88,5.6t-7.8,15.81l-2.55,17h29.49l-4.25,29.07H864.75L846.17,613.69Z"/><path class="cls-1" d="M1053,460.21h-44.53l-44.11,97.57-.85-.14-.28-8.37-12.62-89.06H906.09l32.47,153.48c-8.08,17.39-16,26.45-30.9,40.58a120.51,120.51,0,0,1-24.17,17.37c-28.69,16.11-62.08,22.1-94.67,22.47-1.1,0-2.19,0-3.29,0-99.49,0-142.11-54.53-143.88-56.86L628,647.51l-13.69,10.16c2.13,2.88,53.71,70.55,171.19,70.55,68.49,0,139.12-28.54,176.53-88.21,12.14-19.36,21-40.59,31.25-61l38-75.67Q1042.16,481.79,1053,460.21Z"/><path class="cls-1" d="M286.09,379l8.24,2.33a.15.15,0,0,1,0,.06l66.92,19.44,67.51-19.3v-.2l39.37-11.15L360.45,351.78l-105,18.3Z"/><path class="cls-1" d="M299,458.48C315,444.2,335.48,437,360.18,437c25.49,0,46.56,7.64,62.76,22.71a8.89,8.89,0,0,0,5.81-8.9V397.11l-67.52,19.31-67.05-19.48c-.05,17.62.21,54.37.21,54.37A6.65,6.65,0,0,0,299,458.48Z"/></svg>