<svg id="Camada_1" data-name="Camada 1" xmlns="http://www.w3.org/2000/svg" xmlns:xlink="http://www.w3.org/1999/xlink" viewBox="0 0 1080 1080"><defs><style>.cls-1{fill:url(#Gradiente_sem_nome_18);}.cls-2{fill:url(#Gradiente_sem_nome_18-2);}</style><linearGradient id="Gradiente_sem_nome_18" x1="522.95" y1="856.92" x2="540.23" y2="338.52" gradientUnits="userSpaceOnUse"><stop offset="0" stop-color="#0a94d5"/><stop offset="1" stop-color="#015ec5"/></linearGradient><linearGradient id="Gradiente_sem_nome_18-2" x1="530.16" y1="857.16" x2="547.44" y2="338.76" xlink:href="#Gradiente_sem_nome_18"/></defs><path class="cls-1" d="M1052.16,345.59,533.62,257,27.84,345.18l147.7,42.9,39.69,11.23a1.81,1.81,0,0,0-.06.28L537.46,493.2l325.1-92.94v-.95l70-19.83V592.87H994V362.06Z"/><path class="cls-2" d="M214.49,474.53c-.25,84.85,1,261.82,1,261.82-.78,15.69,5.33,28,22.34,34.56C379,797.55,540,823,540,823s155.35-29,295.31-52.47c11.92-5,28.16-10.81,27.25-36.78V475.35l-325.19,93Z"/></svg>